<svg width="19" height="18" viewBox="0 0 19 18" fill="none" xmlns="http://www.w3.org/2000/svg">
<g clip-path="url(#clip0_1258_25491)">
<path opacity="0.3" d="M18.4734 16.5656L15.104 13.275C17.9355 10.0969 17.7373 5.2875 14.6793 2.3625C11.4515 -0.7875 6.26994 -0.7875 3.01378 2.3625C-0.129114 5.4 -0.214058 10.4062 2.8439 13.5281L3.01378 13.6969C5.95848 16.5094 10.5454 16.8188 13.8299 14.4L17.2276 17.7188C17.3692 17.8875 17.5957 17.9719 17.8222 18C18.0487 18 18.2752 17.9156 18.4451 17.7469C18.7849 17.4375 18.8132 16.9031 18.4734 16.5656ZM2.33424 8.01562C2.39087 4.5 5.30725 1.6875 8.87486 1.71563C12.4142 1.6875 15.3022 4.5 15.3872 8.01562C15.3305 11.5312 12.4142 14.3438 8.87486 14.3156C5.30725 14.3719 2.39087 11.5594 2.33424 8.01562Z" fill="white"/>
</g>
<defs>
<clipPath id="clip0_1258_25491">
<rect width="18.1212" height="18" fill="white" transform="translate(0.602539)"/>
</clipPath>
</defs>
</svg>
